<svg width="17" height="16" viewBox="0 0 17 16" fill="none" xmlns="http://www.w3.org/2000/svg">
<path fill-rule="evenodd" clip-rule="evenodd" d="M8.49887 0C7.71697 0 7.08239 0.6325 7.08239 1.41183V6.5893H1.41648C0.634582 6.5893 0 7.2218 0 8.00113C0 8.6133 0.394347 9.13511 0.945074 9.32938V14.5882C0.945074 15.3675 1.57966 16 2.36155 16H14.6384C15.4203 16 16.0549 15.3675 16.0549 14.5882V9.32938C16.6034 9.13511 17 8.6133 17 8.00113C17 7.2218 16.3654 6.5893 15.5835 6.5893H9.91761V1.41183C9.91534 0.6325 9.28076 0 8.49887 0ZM8.49887 0.941974C8.7595 0.941974 8.97027 1.15205 8.97027 1.41183V10.4137C8.82069 10.3753 8.66204 10.3527 8.49887 10.3527C8.33569 10.3527 8.17704 10.373 8.02746 10.4137V1.41183C8.02746 1.15205 8.23823 0.941974 8.49887 0.941974ZM1.41648 7.53127H7.08239V8.47325H1.41648C1.15585 8.47325 0.945074 8.26317 0.945074 8.00339C0.945074 7.74361 1.15585 7.53353 1.41648 7.53353V7.53127ZM9.91534 7.53127H15.5813C15.8419 7.53127 16.0527 7.74135 16.0527 8.00113C16.0527 8.26091 15.8419 8.47099 15.5813 8.47099H9.91534V7.52901V7.53127ZM1.88788 9.41296H7.08239V10.992C6.78776 11.324 6.61098 11.76 6.61098 12.2366C6.61098 13.2757 7.45634 14.1183 8.49887 14.1183C9.54139 14.1183 10.3867 13.2757 10.3867 12.2366C10.3867 11.76 10.2077 11.324 9.91534 10.992V9.41296H15.1099V12.2366H14.1648C13.9041 12.2366 13.6934 12.4467 13.6934 12.7065C13.6934 12.9663 13.9041 13.1763 14.1648 13.1763H15.1099V13.6462C14.8492 13.6462 14.6384 13.8563 14.6384 14.1161C14.6384 14.3758 14.8492 14.5859 15.1099 14.5859C15.1099 14.8457 14.8991 15.0558 14.6384 15.0558H2.36155C2.10092 15.0558 1.89015 14.8457 1.89015 14.5859H2.5286C2.78923 14.5859 3 14.3758 3 14.1161C3 13.8563 2.78923 13.6462 2.5286 13.6462H1.89015V13.1763C2.15078 13.1763 2.36155 12.9663 2.36155 12.7065C2.36155 12.4467 2.15078 12.2366 1.89015 12.2366V9.41296H1.88788ZM8.49887 11.2946C9.02013 11.2946 9.44394 11.7171 9.44394 12.2366C9.44394 12.7562 9.02013 13.1786 8.49887 13.1786C7.9776 13.1786 7.55379 12.7562 7.55379 12.2366C7.55379 11.7171 7.9776 11.2946 8.49887 11.2946Z" fill="#DCDCDC"/>
</svg>
