<svg width="24" height="25" viewBox="0 0 24 25" fill="none" xmlns="http://www.w3.org/2000/svg">
<path d="M19.6176 5.50567C18.7949 3.29606 18.3753 2.17483 17.9385 2.18643C17.3145 2.20189 17.2137 3.75326 15.8677 5.70091C15.1534 6.73516 13.7115 8.85777 12.1898 8.72824C10.6777 8.59969 9.66779 6.3002 8.82007 4.37283C7.60658 1.61325 7.70067 0.0657528 7.11888 0.00195855C6.25101 -0.0937329 5.81707 3.32699 3.29217 8.08353C1.17624 12.0697 0.182604 12.1142 0.020358 14C-0.301255 17.7339 3.23745 21.6727 7.11408 23.2801C11.5226 25.1089 15.5931 23.6 16.6425 23.168C20.5527 21.5586 24.5417 17.5956 23.9407 14.3856C23.7343 13.2818 23.1093 12.9329 22.2846 11.7208C21.9083 11.1679 21.5118 10.3666 21.0634 9.39712C20.4212 8.00814 20.3741 7.53838 19.6167 5.50373L19.6176 5.50567ZM9.04664 14.085C9.0044 15.676 7.97044 17.4671 7.01616 17.4178C6.0638 17.3685 5.34473 15.4953 5.29865 14.0589C5.24777 12.4747 5.98508 10.4923 6.93648 10.4265C7.91187 10.3589 9.09464 12.3046 9.04664 14.086V14.085ZM12.8369 20.913C12.2436 21.6543 12.0074 21.7432 11.8144 21.7432C11.6733 21.7432 11.3997 21.6959 10.791 20.913C10.0566 19.9686 9.51226 19.2659 9.76859 18.7729C10.0288 18.2752 10.9523 18.2858 11.7789 18.2955C12.5786 18.3042 13.6932 18.3177 13.9371 18.8831C14.1195 19.3046 13.6913 19.84 12.8359 20.912L12.8369 20.913ZM18.5357 14.4291C18.4137 15.7814 17.5718 17.4304 16.6473 17.4178C15.7016 17.4052 14.9317 15.6586 14.8203 14.3102C14.6744 12.5559 15.5557 10.4662 16.5244 10.4265C17.5267 10.384 18.7065 12.5288 18.5347 14.4301L18.5357 14.4291Z" fill="#141614"/>
</svg>
