<svg width="568" height="568" viewBox="0 0 568 568" fill="none" xmlns="http://www.w3.org/2000/svg">
<path d="M567 530.95H568V538.55H567V540.45H568V548.05H567V549.95H568V557.55H567V559.45H568V567H567.003V567.05H567L567.003 568H559.031V567H557.038V568H549.066V567H547.073V568H539.101V567H537.108V568H529.137V567H527.144V568H519.172V567H517.179V568H509.207V567H507.214V568H499.242V567H497.249V568H489.277V567H487.284V568H479.312V567H477.319V568H469.347V567H467.354V568H459.382V567H457.389V568H449.417V567H447.424V568H439.452V567H437.459V568H429.487V567H427.495V568H419.523V567H417.53V568H409.558V567H407.565V568H399.593V567H397.6V568H389.628V567H387.635V568H379.663V567H377.67V568H369.698V567H367.705V568H359.733V567H357.74V568H349.768V567H347.775V568H339.803V567H337.81V568H329.838V567H327.845V568H319.874V567H317.881V568H309.909V567H307.916V568H299.944V567H297.951V568H289.979V567H287.986V568H280.014V567H278.021V568H270.049V567H268.056V568H260.084V567H258.091V568H250.119V567H248.126V568H240.154V567H238.161V568H230.189V567H228.196V568H220.224V567H218.232V568H210.26V567H208.267V568H200.295V567H198.302V568H190.33V567H188.337V568H180.365V567H178.372V568H170.4V567H168.407V568H160.435V567H158.442V568H150.47V567H148.477V568H140.505V567H138.512V568H130.54V567H128.547V568H120.575V567H118.582V568H110.611V567H108.618V568H100.646V567H98.6526V568H90.6807V567H88.6877V568H80.7158V567H78.7228V568H70.7509V567H68.7579V568H60.786V567H58.793V568H50.8211V567H48.8281V568H40.8561V567H38.8632V568H30.8912V567H28.8982V568H20.9263V567H18.9333V568H10.9614V567H8.96842V568H1V567.003H0.996491V567L0 567.003V559.031H1V557.038H0V549.066H1V547.073H0V539.101H1V537.108H0V529.137H1V527.144H0V519.172H1V517.179H0V509.207H1V507.214H0V499.242H1V497.249H0V489.277H1V487.284H0V479.312H1V477.319H0V469.347H1V467.354H0V459.382H1V457.389H0V449.417H1V447.424H0V439.452H1V437.459H0V429.487H1V427.495H0V419.523H1V417.53H0V409.558H1V407.565H0V399.593H1V397.6H0V389.628H1V387.635H0V379.663H1V377.67H0V369.698H1V367.705H0V359.733H1V357.74H0V349.768H1V347.775H0V339.803H1V337.81H0V329.838H1V327.845H0V319.874H1V317.881H0V309.909H1V307.916H0V299.944H1V297.951H0V289.979H1V287.986H0V280.014H1V278.021H0V270.049H1V268.056H0V260.084H1V258.091H0V250.119H1V248.126H0V240.154H1V238.161H0V230.189H1V228.196H0V220.224H1V218.232H0V210.26H1V208.267H0V200.295H1V198.302H0V190.33H1V188.337H0V180.365H1V178.372H0V170.4H1V168.407H0V160.435H1V158.442H0V150.47H1V148.477H0V140.505H1V138.512H0V130.54H1V128.547H0V120.575H1V118.582H0V110.611H1V108.618H0V100.646H1V98.6526H0V90.6807H1V88.6877H0V80.7158H1V78.7228H0V70.7509H1V68.7579H0V60.786H1V58.793H0V50.8211H1V48.8281H0V40.8561H1V38.8632H0V30.8912H1V28.8982H0V20.9263H1V18.9333H0V10.9614H1V8.96842H0V1H0.950001V0.996491H1V0H8.55V1H10.45V0H18.05V1H19.95V0H27.55V1H29.45V0H37.05V1H38C38.3352 1 38.6704 1.00031 39.0054 1.00094L39.0073 0.000936802C41.6966 0.00593942 44.3812 0.030972 47.061 0.0758934L47.0442 1.07575C47.7129 1.08696 48.3813 1.09941 49.0494 1.1131L49.0699 0.113311C51.7473 0.168168 54.4197 0.242878 57.0872 0.337301L57.0518 1.33667C57.7174 1.36024 58.3828 1.38503 59.0478 1.41105L59.0869 0.411812C61.7582 0.516334 64.4245 0.640627 67.0856 0.78455L67.0316 1.78309C67.7011 1.8193 68.3703 1.85676 69.0391 1.89546L69.0969 0.897124C71.7773 1.05221 74.4524 1.22721 77.122 1.42199L77.0492 2.41933C77.7154 2.46794 78.3812 2.51778 79.0467 2.56884L79.1232 1.57178C81.79 1.77643 84.4513 2.00082 87.107 2.2448L87.0155 3.24061C87.6782 3.30149 88.3405 3.36359 89.0024 3.42692L89.0977 2.43146C91.766 2.68672 94.4285 2.96175 97.0851 3.25642L96.9749 4.25033C97.6402 4.32413 98.3052 4.39917 98.9699 4.47544L99.0839 3.48196C101.747 3.7876 104.405 4.11299 107.056 4.45797L106.927 5.44961C107.589 5.53569 108.25 5.623 108.911 5.71152L109.043 4.72038C111.692 5.07515 114.334 5.44948 116.969 5.84321L116.822 6.83224C117.48 6.93058 118.138 7.03014 118.795 7.13091L118.947 6.14245C121.602 6.54931 124.25 6.97587 126.892 7.42197L126.725 8.40801C127.384 8.51933 128.043 8.63186 128.701 8.74561L128.872 7.76021C131.51 8.21608 134.142 8.69145 136.767 9.18618L136.581 10.1689C137.236 10.2923 137.891 10.417 138.545 10.5428L138.734 9.56085C141.36 10.0661 143.979 10.5907 146.591 11.1346L146.387 12.1136C147.042 12.25 147.697 12.3877 148.352 12.5267L148.559 11.5484C151.183 12.1051 153.799 12.6813 156.408 13.2766L156.186 14.2516C156.837 14.4001 157.487 14.5499 158.137 14.7008L158.363 13.7268C160.969 14.3317 163.567 14.9559 166.157 15.5992L165.916 16.5697C166.562 16.7302 167.208 16.8919 167.854 17.0548L168.098 16.0852C170.697 16.7409 173.287 17.4158 175.87 18.1098L175.611 19.0755C176.257 19.249 176.902 19.4237 177.547 19.5996L177.81 18.6349C180.394 19.3397 182.97 20.0637 185.538 20.8065L185.261 21.7671C185.901 21.9525 186.542 22.139 187.182 22.3267L187.463 21.3672C190.027 22.1194 192.583 22.8906 195.131 23.6804L194.835 24.6356C195.474 24.8335 196.112 25.0326 196.749 25.2329L197.049 24.2789C199.607 25.0826 202.157 25.9052 204.698 26.7466L204.384 27.6959C205.018 27.9058 205.652 28.117 206.285 28.3292L206.603 27.3811C209.14 28.2318 211.668 29.1011 214.188 29.989L213.855 30.9322C214.484 31.1537 215.112 31.3764 215.74 31.6003L216.076 30.6584C218.597 31.5574 221.109 32.4751 223.612 33.4111L223.262 34.3477C223.888 34.5819 224.514 34.8172 225.139 35.0537L225.493 34.1184C227.998 35.0662 230.494 36.0323 232.981 37.0168L232.613 37.9466C233.234 38.1922 233.854 38.439 234.473 38.6869L234.845 37.7585C237.327 38.7521 239.8 39.764 242.264 40.7938L241.878 41.7165C242.493 41.9734 243.107 42.2316 243.721 42.4908L244.11 41.5696C246.579 42.6127 249.038 43.674 251.488 44.7533L251.084 45.6684C251.696 45.9377 252.306 46.2082 252.916 46.4798L253.323 45.5662C255.768 46.6546 258.203 47.761 260.629 48.8851L260.208 49.7924C260.813 50.0729 261.418 50.3545 262.022 50.6372L262.446 49.7316C264.868 50.8656 267.281 52.0175 269.683 53.187L269.245 54.0861C269.846 54.3787 270.447 54.6724 271.047 54.9671L271.488 54.0697C273.891 55.251 276.284 56.45 278.667 57.6665L278.212 58.5571C278.807 58.8607 279.401 59.1653 279.994 59.471L280.452 58.5821C282.83 59.8074 285.197 61.05 287.553 62.31L287.081 63.1919C287.669 63.5063 288.257 63.8218 288.843 64.1383L289.318 63.2582C291.675 64.5298 294.021 65.8187 296.356 67.1248L295.867 67.9975C296.45 68.3236 297.033 68.6507 297.614 68.9789L298.106 68.108C300.436 69.4234 302.756 70.7558 305.065 72.1052L304.56 72.9686C305.136 73.3053 305.712 73.6431 306.286 73.9819L306.794 73.1205C309.098 74.4788 311.391 75.854 313.672 77.2459L313.151 78.0995C313.721 78.4476 314.291 78.7967 314.86 79.1468L315.384 78.2951C317.664 79.6983 319.933 81.1182 322.19 82.5548L321.653 83.3984C322.216 83.7569 322.779 84.1164 323.34 84.4769L323.88 83.6353C326.132 85.0802 328.371 86.5416 330.599 88.0194L330.046 88.8527C330.602 89.2215 331.157 89.5913 331.712 89.9621L332.268 89.1308C334.492 90.6187 336.705 92.1229 338.906 93.6433L338.337 94.466C338.887 94.8456 339.436 95.2263 339.983 95.6079L340.555 94.7873C342.751 96.3167 344.935 97.8623 347.106 99.4239L346.522 100.236C347.064 100.625 347.605 101.016 348.145 101.408L348.732 100.598C350.897 102.168 353.05 103.753 355.191 105.355L354.592 106.155C355.127 106.555 355.661 106.957 356.194 107.359L356.796 106.56C358.933 108.172 361.057 109.799 363.169 111.442L362.555 112.231C363.082 112.641 363.608 113.052 364.133 113.464L364.75 112.677C366.855 114.327 368.948 115.993 371.027 117.675L370.398 118.453C370.917 118.872 371.435 119.293 371.953 119.714L372.584 118.939C374.658 120.629 376.719 122.335 378.767 124.056L378.124 124.821C378.635 125.251 379.145 125.681 379.655 126.113L380.301 125.35C382.343 127.078 384.371 128.823 386.386 130.582L385.729 131.335C386.232 131.774 386.734 132.214 387.235 132.655L387.895 131.904C389.904 133.671 391.899 135.452 393.88 137.249L393.208 137.989C393.703 138.438 394.196 138.887 394.689 139.337L395.364 138.599C397.339 140.403 399.301 142.223 401.248 144.057L400.563 144.785C401.049 145.242 401.534 145.701 402.018 146.16L402.706 145.435C404.647 147.276 406.574 149.132 408.487 151.002L407.788 151.717C408.265 152.183 408.741 152.651 409.217 153.119L409.919 152.407C411.824 154.284 413.716 156.175 415.593 158.081L414.881 158.783C415.349 159.258 415.816 159.735 416.283 160.212L416.998 159.513C418.868 161.426 420.724 163.353 422.565 165.293L421.839 165.982C422.299 166.466 422.757 166.951 423.215 167.437L423.943 166.751C425.777 168.699 427.596 170.661 429.401 172.636L428.662 173.31C429.113 173.803 429.562 174.297 430.01 174.791L430.751 174.12C432.548 176.101 434.329 178.096 436.096 180.104L435.345 180.765C435.573 181.024 435.8 181.283 436.027 181.542C436.24 181.785 436.452 182.028 436.665 182.271L437.418 181.613C439.177 183.628 440.921 185.657 442.65 187.699L441.887 188.345C442.318 188.855 442.749 189.365 443.178 189.876L443.944 189.233C445.665 191.28 447.37 193.341 449.061 195.415L448.285 196.047C448.707 196.564 449.127 197.082 449.547 197.601L450.325 196.972C452.006 199.052 453.672 201.144 455.323 203.249L454.536 203.867C454.948 204.392 455.359 204.918 455.769 205.445L456.558 204.831C458.201 206.942 459.828 209.067 461.439 211.204L460.641 211.806C461.043 212.339 461.444 212.873 461.844 213.408L462.645 212.809C464.246 214.949 465.832 217.102 467.402 219.267L466.592 219.854C466.984 220.395 467.374 220.936 467.764 221.478L468.576 220.894C470.137 223.065 471.683 225.249 473.212 227.445L472.392 228.016C472.773 228.564 473.154 229.113 473.534 229.662L474.356 229.094C475.877 231.294 477.381 233.507 478.869 235.732L478.038 236.288C478.409 236.842 478.778 237.397 479.147 237.953L479.98 237.4C481.458 239.628 482.92 241.868 484.364 244.119L483.523 244.659C483.883 245.221 484.243 245.783 484.601 246.347L485.445 245.81C486.882 248.067 488.301 250.336 489.705 252.616L488.853 253.14C489.203 253.709 489.552 254.278 489.9 254.849L490.754 254.328C492.146 256.609 493.521 258.902 494.879 261.205L494.018 261.713C494.19 262.005 494.362 262.298 494.534 262.59C494.7 262.873 494.866 263.156 495.031 263.439L495.895 262.935C497.244 265.243 498.576 267.563 499.892 269.894L499.021 270.385C499.349 270.967 499.676 271.549 500.002 272.132L500.875 271.644C502.181 273.979 503.47 276.325 504.741 278.681L503.861 279.156C504.178 279.743 504.493 280.33 504.808 280.918L505.69 280.447C506.95 282.803 508.192 285.17 509.418 287.547L508.529 288.006C508.834 288.599 509.139 289.193 509.443 289.787L510.333 289.333C511.55 291.715 512.749 294.108 513.93 296.512L513.033 296.953C513.327 297.553 513.621 298.153 513.914 298.754L514.813 298.316C515.982 300.719 517.134 303.131 518.268 305.554L517.362 305.978C517.645 306.582 517.927 307.186 518.207 307.791L519.115 307.371C520.239 309.796 521.345 312.231 522.434 314.676L521.52 315.083C521.792 315.693 522.062 316.304 522.331 316.915L523.246 316.512C524.326 318.961 525.387 321.421 526.43 323.89L525.509 324.279C525.768 324.892 526.026 325.507 526.283 326.121L527.206 325.736C528.236 328.199 529.248 330.672 530.241 333.155L529.313 333.526C529.561 334.146 529.807 334.766 530.053 335.386L530.983 335.018C531.967 337.505 532.934 340.001 533.881 342.507L532.946 342.86C533.182 343.486 533.418 344.111 533.652 344.738L534.589 344.387C535.525 346.89 536.442 349.402 537.341 351.923L536.399 352.259C536.501 352.545 536.603 352.831 536.705 353.118C536.826 353.46 536.947 353.802 537.068 354.144L538.011 353.811C538.899 356.331 539.768 358.86 540.619 361.397L539.671 361.715C539.883 362.348 540.094 362.981 540.304 363.615L541.253 363.301C542.095 365.842 542.917 368.392 543.721 370.95L542.767 371.25C542.859 371.544 542.951 371.838 543.043 372.132C543.15 372.476 543.257 372.82 543.364 373.164L544.319 372.868C545.109 375.416 545.88 377.972 546.633 380.536L545.673 380.818C545.861 381.457 546.047 382.098 546.233 382.739L547.193 382.461C547.936 385.029 548.66 387.605 549.365 390.189L548.4 390.452C548.576 391.097 548.751 391.743 548.924 392.388L549.89 392.129C550.584 394.712 551.259 397.302 551.915 399.901L550.945 400.146C551.108 400.791 551.27 401.437 551.43 402.083L552.401 401.842C553.044 404.432 553.668 407.03 554.273 409.636L553.299 409.862C553.45 410.512 553.6 411.162 553.748 411.813L554.723 411.591C555.318 414.2 555.895 416.816 556.451 419.439L555.473 419.647C555.612 420.302 555.75 420.957 555.886 421.612L556.865 421.408C557.409 424.02 557.934 426.639 558.439 429.265L557.457 429.454C557.583 430.108 557.707 430.763 557.831 431.418L558.814 431.232C559.308 433.857 559.784 436.489 560.24 439.127L559.254 439.298C559.368 439.956 559.48 440.615 559.592 441.274L560.578 441.107C561.024 443.749 561.451 446.397 561.857 449.052L560.869 449.204C560.97 449.861 561.069 450.519 561.168 451.177L562.157 451.03C562.55 453.665 562.925 456.307 563.279 458.955L562.288 459.088C562.377 459.749 562.464 460.41 562.55 461.072L563.542 460.943C563.887 463.594 564.212 466.251 564.518 468.915L563.524 469.029C563.601 469.694 563.676 470.359 563.75 471.024L564.743 470.914C565.038 473.57 565.313 476.233 565.568 478.901L564.573 478.996C564.636 479.658 564.698 480.321 564.759 480.983L565.755 480.892C565.999 483.547 566.223 486.209 566.428 488.876L565.431 488.952C565.482 489.617 565.532 490.283 565.581 490.949L566.578 490.877C566.773 493.546 566.948 496.221 567.103 498.902L566.104 498.96C566.143 499.628 566.181 500.298 566.217 500.967L567.215 500.913C567.359 503.574 567.484 506.24 567.588 508.912L566.589 508.951C566.615 509.616 566.64 510.281 566.663 510.947L567.663 510.911C567.757 513.579 567.832 516.251 567.887 518.929L566.887 518.949C566.901 519.617 566.913 520.286 566.924 520.954L567.924 520.938C567.969 523.617 567.994 526.302 567.999 528.991L566.999 528.993C567 529.329 567 529.664 567 530V530.95Z" stroke="black" stroke-width="2" stroke-dasharray="2 8"/>
</svg>
