<svg width="55" height="38" viewBox="0 0 55 38" fill="none" xmlns="http://www.w3.org/2000/svg">
<path d="M20.8111 4.54669H14.7821C13.4601 4.02474 12.046 3.76086 10.5809 3.76086C4.96472 3.76086 0.394931 7.74027 0.394931 12.6341C0.394931 14.9287 1.39049 17.0939 3.20112 18.7506C2.82287 19.1875 2.29869 20.4643 2.2334 21.5691C2.20556 22.0321 2.24396 22.9407 2.80079 23.8193C3.01872 24.1654 3.64658 25.0082 4.75063 25.3591C5.21528 25.507 5.64442 25.5225 5.83547 25.5234C6.25308 25.5254 6.59006 25.4471 6.90975 25.3755C7.27553 25.2943 7.53858 25.2054 7.60194 25.1851C8.31429 24.9522 9.67082 24.8014 10.5848 24.7927C11.2155 24.7869 14.0668 24.756 16.5869 26.5538C17.7207 27.3628 18.1585 28.0945 18.3064 28.3613C18.4446 28.6116 18.9045 29.4487 18.9045 30.4578C18.9045 31.9096 18.0817 33.2957 16.5869 34.3628C14.9962 35.4985 12.8639 36.1239 10.5848 36.1239C8.30565 36.1239 6.1734 35.4995 4.58166 34.3628C4.22548 34.1086 3.90387 33.8157 3.90387 33.8157C3.52178 33.459 2.84207 32.8105 2.48781 31.7521C2.30925 31.2185 2.28237 30.7903 2.27661 30.6676C2.24493 30.0054 2.39469 29.5048 2.50029 29.1626C2.6971 28.5295 2.96591 28.0916 3.1272 27.8287C3.27697 27.5851 3.44305 27.3503 3.62066 27.1308C3.74643 26.9723 3.74451 26.7471 3.6149 26.5925L3.21648 26.115C3.13584 26.0193 3.01871 25.9651 2.89583 25.9651C2.81231 25.9651 2.73071 25.9903 2.66062 26.0376C2.46861 26.1691 2.27565 26.3247 2.08652 26.4987C1.12072 27.3831 0.721342 28.3352 0.555256 28.9789C0.42373 29.4903 0.406449 29.933 0.395889 30.1968C0.387248 30.4133 0.376691 30.9537 0.476535 31.5307C0.707904 32.8762 1.43369 33.8292 1.79083 34.2864C1.9886 34.5406 2.5483 35.2115 3.50354 35.8929C5.40825 37.2519 7.92259 38 10.5848 38C13.247 38 15.7623 37.2519 17.6651 35.8929C19.6667 34.4653 20.7679 32.534 20.7679 30.4578C20.7679 28.3816 19.6667 26.4513 17.6651 25.0237C15.7613 23.6647 13.246 22.9156 10.5848 22.9156C9.34825 22.9156 8.08676 23.0422 6.90783 23.4172C6.76479 23.4627 6.13116 23.6753 5.48505 23.4569C5.36793 23.4172 5.27289 23.3699 5.21048 23.3389C5.05976 23.2626 4.5471 22.9726 4.32437 22.4168C4.07764 21.7944 4.25813 20.5407 4.78423 19.9327C6.49118 20.9641 8.4919 21.5092 10.5809 21.5092C16.1991 21.5092 20.7689 17.5279 20.7689 12.636C20.7689 10.3288 19.7762 8.17427 17.9627 6.51755H20.8111C21.0425 6.51755 21.2306 6.3281 21.2306 6.09516V4.97006C21.2306 4.73711 21.0425 4.54766 20.8111 4.54766V4.54669ZM10.5819 19.5876C6.01692 19.5876 2.30253 16.4675 2.30253 12.6341C2.30253 8.80061 6.01692 5.68049 10.5819 5.68049C15.1469 5.68049 18.8622 8.79965 18.8622 12.6341C18.8622 16.4685 15.1478 19.5876 10.5819 19.5876Z" fill="#141614"/>
<path d="M41.7899 4.68299C39.3236 4.07018 37.0992 3.76087 35.1781 3.76087C34.4418 3.7512 33.4673 3.786 32.3364 3.96095C31.9735 4.01701 30.8762 4.20066 29.8394 4.53993C27.855 5.18851 26.1989 6.24015 24.9201 7.66489C24.2107 8.45362 22.0563 10.8536 22.1725 14.3633C22.3136 18.6211 25.6843 21.1023 26.3218 21.5498C28.7929 23.2848 31.386 23.3245 32.3758 23.3264C33.0795 23.3274 34.6136 23.2626 36.4108 22.5773C37.8221 22.0399 39.1383 21.2086 40.2423 20.1608L40.2183 22.1588C40.2183 22.1897 40.2203 22.2342 40.2347 22.2834C40.274 22.4159 40.3815 22.5241 40.5112 22.5657C40.5601 22.5812 40.6043 22.585 40.6369 22.585H41.7525C41.9838 22.585 42.1701 22.3956 42.1701 22.1626V5.17014C42.1701 4.93816 42.0146 4.73808 41.7899 4.68299ZM40.2222 6.22372C40.2203 10.0117 40.2174 13.7998 40.2155 17.5878C39.5386 18.3949 38.088 19.8941 35.7628 20.7186C35.0994 20.9544 30.9568 22.4226 27.445 19.9376C26.7788 19.4659 24.2318 17.5095 24.1262 14.2956C24.0359 11.5747 25.7314 9.69374 26.3698 8.98524C29.1836 5.86512 33.3032 5.6892 35.1311 5.6109C37.3017 5.51811 39.0778 5.89508 40.2231 6.22372H40.2222Z" fill="#141614"/>
<path d="M54.9973 21.7006C54.982 21.8156 54.9196 21.92 54.8265 21.9877C53.1521 23.1979 51.0458 23.3351 51.0458 23.3351C50.4477 23.3264 48.5305 23.2143 46.8284 21.7837C45.2558 20.4624 44.7153 18.8009 44.386 17.3781C44.0059 15.7407 44.0059 13.8143 44.0059 12.6641V1.31351C44.0059 1.08056 44.194 0.891113 44.4254 0.891113H45.5429C45.7733 0.891113 45.9605 1.08056 45.9605 1.31351V4.54672H51.8503C52.0817 4.54672 52.2699 4.73617 52.2699 4.96912V6.09421C52.2699 6.32716 52.0817 6.51661 51.8503 6.51661H45.9605V12.665C45.9605 13.7312 45.9605 15.5135 46.2898 16.9305C46.5231 17.9387 47.03 19.3422 48.1177 20.3058C48.9251 21.0201 50.0599 21.429 51.2292 21.429C52.1883 21.429 53.0974 21.1477 53.7906 20.6383C53.8626 20.5852 53.9471 20.5562 54.0363 20.5562C54.1631 20.5562 54.2811 20.6132 54.3608 20.7108L54.9042 21.3778C54.9781 21.4686 55.0117 21.5866 54.9964 21.7026L54.9973 21.7006Z" fill="#141614"/>
</svg>
