<svg width="18" height="18" viewBox="0 0 18 18" fill="none" xmlns="http://www.w3.org/2000/svg">
<path fill-rule="evenodd" clip-rule="evenodd" d="M17.3172 7.36541C17.5235 7.39746 17.6858 7.55971 17.7178 7.76603C17.7179 7.76644 17.718 7.76717 17.7181 7.76822C17.7344 7.88048 18.278 11.6425 14.3366 12.7678C13.7517 12.91 13.2549 13.2906 12.9665 13.8194C12.2463 15.1287 12.7611 17.1175 12.8324 17.3931C12.8374 17.4126 12.8403 17.4235 12.8403 17.425C12.8883 17.6554 12.7621 17.8877 12.5398 17.9698C12.2954 18.062 12.021 17.9358 11.9309 17.6894L11.9298 17.6858C11.8869 17.5379 11.1789 15.0946 12.1312 13.3547C12.5418 12.6015 13.2469 12.0547 14.0782 11.8423C16.6241 11.1232 16.8324 9.08808 16.8104 8.26681L16.1113 8.17867C15.891 8.15063 15.7187 7.97435 15.6987 7.75401C15.5905 5.98928 14.3005 4.52301 12.5658 4.18649C12.3355 4.14843 12.1652 3.95012 12.1652 3.71776V1.13576C4.07268 4.05829 0.949838 12.1869 0.919792 12.271C0.827649 12.5174 0.555227 12.6416 0.308845 12.5494C0.0624632 12.4573 -0.0617292 12.1849 0.0304136 11.9385C0.168628 11.5699 3.5078 2.88848 12.4977 0.0220341C12.5438 0.00801241 12.5899 0 12.6379 0C12.9004 0 13.1147 0.210326 13.1167 0.474735V1.07567C13.5193 0.913415 13.9279 0.765186 14.3386 0.632981C14.4828 0.586909 14.641 0.61295 14.7632 0.703089C14.8874 0.791226 14.9635 0.933446 14.9635 1.08568V4.30667C15.8629 5.05583 16.4478 6.11547 16.6021 7.27527L17.3172 7.36541ZM14.0061 3.69573V1.75672V1.74871C13.7056 1.85688 13.4071 1.97506 13.1147 2.10726V3.34919C13.4212 3.43733 13.7196 3.55351 14.0061 3.69573ZM14.1362 6.52208V8.05445V8.11655C14.1182 8.37695 13.8939 8.57526 13.6314 8.55923C13.371 8.5412 13.1727 8.31686 13.1888 8.05445V6.52208V6.45998C13.2068 6.19958 13.4311 6.00127 13.6935 6.01729C13.9539 6.03532 14.1523 6.25967 14.1362 6.52208Z" fill="#EFEFEF"/>
</svg>
